<svg width="383" height="59" viewBox="0 0 383 59" fill="none" xmlns="http://www.w3.org/2000/svg">
<path d="M164.917 18.3109C164.917 8.69892 157.008 1.50968 145.146 1.50968H133.011L133.04 8.90022H145.017C151.624 8.90022 156.8 12.3798 156.8 18.7423C156.8 24.9538 151.861 29.066 144.902 29.066H133.04L133.011 35.9821H143.795L158.461 56.8309H168.238L152.501 34.8462C159.934 32.1862 164.917 25.6224 164.917 18.3109Z" fill="white"/>
<path d="M351.995 18.3109C351.995 8.69892 344.087 1.50968 332.225 1.50968H320.089L320.118 8.90022H332.095C338.702 8.90022 343.879 12.3798 343.879 18.7423C343.879 24.9538 338.94 29.066 331.98 29.066H320.118L320.089 35.9821H330.873L345.539 56.8309H355.317L339.579 34.8462C347.013 32.1862 351.995 25.6224 351.995 18.3109Z" fill="white"/>
<path d="M218.051 10.2949C214.661 8.91247 211.037 8.19725 207.375 8.18843C201.006 8.18843 195.988 11.1576 195.988 16.0175C195.988 26.9667 224.745 23.1349 224.745 41.3955C224.745 51.3239 216.441 57.6072 205.334 57.6072C197.231 57.7654 191.257 55.4505 187.504 52.5748L192.149 46.2267C195.47 47.9018 200.093 49.886 204.27 49.886C210.596 49.886 216.491 46.9169 216.491 41.8988C216.491 31.1149 188.029 34.7814 188.029 16.5927C188.029 7.146 195.578 0.776331 206.534 0.776331C211.905 0.661304 217.678 2.04164 221.948 4.85263" fill="white"/>
<path d="M68.5083 1.50968H104.605V8.90021H76.5315V24.7956H100.098V32.3227H76.5315V49.3612H105.749V56.838H68.5083V1.50968Z" fill="white"/>
<path d="M31.8725 56.8165H22.8644L0.167969 1.46654H9.42052L27.7243 47.5639" fill="white"/>
<path d="M373.871 1.46643H382.009V56.8236H373.871V1.46643Z" fill="white"/>
<path d="M48.6085 9.93546C50.9471 9.93546 52.8429 8.03963 52.8429 5.701C52.8429 3.36237 50.9471 1.46654 48.6085 1.46654C46.2699 1.46654 44.374 3.36237 44.374 5.701C44.374 8.03963 46.2699 9.93546 48.6085 9.93546Z" fill="#8EDFE5"/>
<path d="M241.726 29.3174C241.726 13.5011 254.364 0.68985 269.857 0.68985C285.35 0.68985 298.01 13.5802 298.01 29.3174C298.01 45.2056 285.357 58.0168 269.857 58.0168C254.357 58.0168 241.726 45.2631 241.726 29.3174ZM289.721 29.3174C289.721 17.7715 280.986 8.55487 269.871 8.55487C258.757 8.55487 250.029 17.8506 250.029 29.3174C250.029 40.8993 258.764 50.1662 269.871 50.1662C280.979 50.1662 289.707 40.8202 289.707 29.3174H289.721Z" fill="white"/>
</svg>
