<svg width="383" height="58" viewBox="0 0 383 58" fill="none" xmlns="http://www.w3.org/2000/svg">
<path d="M164.917 17.6211C164.917 8.00909 157.008 0.819855 145.146 0.819855H133.011L133.04 8.21039H145.017C151.624 8.21039 156.8 11.69 156.8 18.0525C156.8 24.264 151.861 28.3762 144.902 28.3762H133.04L133.011 35.2923H143.795L158.461 56.141H168.238L152.501 34.1564C159.934 31.4963 164.917 24.9326 164.917 17.6211Z" fill="#161616"/>
<path d="M351.995 17.6211C351.995 8.00909 344.087 0.819855 332.225 0.819855H320.089L320.118 8.21039H332.095C338.702 8.21039 343.879 11.69 343.879 18.0525C343.879 24.264 338.94 28.3762 331.98 28.3762H320.118L320.089 35.2923H330.873L345.539 56.141H355.317L339.579 34.1564C347.013 31.4963 351.995 24.9326 351.995 17.6211Z" fill="#161616"/>
<path d="M218.051 9.60507C214.661 8.22266 211.037 7.50744 207.375 7.49862C201.006 7.49862 195.988 10.4678 195.988 15.3277C195.988 26.2769 224.745 22.445 224.745 40.7057C224.745 50.634 216.441 56.9174 205.334 56.9174C197.231 57.0756 191.257 54.7607 187.504 51.885L192.149 45.5369C195.47 47.212 200.093 49.1962 204.27 49.1962C210.596 49.1962 216.491 46.227 216.491 41.209C216.491 30.4251 188.029 34.0916 188.029 15.9028C188.029 6.45618 195.578 0.0865197 206.534 0.0865197C211.905 -0.0285081 217.678 1.35183 221.948 4.16282" fill="#161616"/>
<path d="M68.5083 0.819855H104.605V8.21039H76.5315V24.1058H100.098V31.6329H76.5315V48.6714H105.749V56.1482H68.5083V0.819855Z" fill="#161616"/>
<path d="M31.8725 56.1267H22.8644L0.167969 0.776718H9.42052L27.7243 46.8741" fill="#161616"/>
<path d="M373.871 0.776611H382.009V56.1337H373.871V0.776611Z" fill="#161616"/>
<path d="M48.6085 9.24564C50.9471 9.24564 52.8429 7.34981 52.8429 5.01118C52.8429 2.67255 50.9471 0.776718 48.6085 0.776718C46.2699 0.776718 44.374 2.67255 44.374 5.01118C44.374 7.34981 46.2699 9.24564 48.6085 9.24564Z" fill="#8EDFE5"/>
<path d="M241.726 28.6276C241.726 12.8113 254.364 3.05176e-05 269.857 3.05176e-05C285.35 3.05176e-05 298.01 12.8903 298.01 28.6276C298.01 44.5158 285.357 57.327 269.857 57.327C254.357 57.327 241.726 44.5733 241.726 28.6276ZM289.721 28.6276C289.721 17.0817 280.986 7.86506 269.871 7.86506C258.757 7.86506 250.029 17.1607 250.029 28.6276C250.029 40.2094 258.764 49.4764 269.871 49.4764C280.979 49.4764 289.707 40.1304 289.707 28.6276H289.721Z" fill="#161616"/>
</svg>
