<svg width="52" height="51" viewBox="0 0 52 51" fill="none" xmlns="http://www.w3.org/2000/svg">
<g clip-path="url(#clip0_505_15895)">
<path d="M45.5903 10.1171C40.8349 3.92551 33.7579 0.598958 26.5427 0.419508C30.8697 1.54357 34.0536 4.33241 36.2505 8.05043C40.0156 7.30851 43.3889 7.72544 45.5903 10.1171Z" fill="#4D839A"/>
<path d="M42.1437 44.2899C41.811 44.5776 41.4689 44.8581 41.1175 45.1309C37.032 48.3039 32.2745 49.9966 27.4831 50.2915C27.175 50.3241 26.8628 50.3377 26.5466 50.3314C26.8588 50.324 27.171 50.3107 27.4831 50.2915C31.1063 49.9078 34.1513 46.8844 36.3489 42.4918C39.1613 44.1549 41.107 44.5392 42.1437 44.2899Z" fill="#001D29"/>
<path d="M42.1435 44.2897C52.0866 35.6937 53.6991 20.6744 45.5904 10.1168C43.3589 7.70543 40.0156 7.30819 36.2505 8.05011C41.8665 17.5548 41.0312 33.1318 36.3486 42.4916C39.1611 44.1547 41.1067 44.5391 42.1435 44.2897Z" fill="#003A52"/>
<path d="M36.3488 42.4915L30.3269 25.433L36.2506 8.04993C41.8666 17.5546 41.0314 33.1316 36.3488 42.4915Z" fill="#006089"/>
<path d="M30.3267 25.4334L14.9563 20.1155C19.2825 15.8835 28.5796 9.56194 36.2504 8.05041L30.3267 25.4334Z" fill="#3380A1"/>
<path d="M30.3269 25.4334L14.9565 20.1155C24.4129 33.2594 31.6107 39.6902 36.3487 42.4919L30.3269 25.4334Z" fill="#66A0B8"/>
<path d="M14.9565 20.1153C3.49735 31.1653 4.40899 38.3979 6.2972 40.6329C11.3164 47.168 18.9219 50.5113 26.5464 50.3313C30.5822 50.4119 33.9643 47.2579 36.3487 42.4917C31.6107 39.69 24.4128 33.2592 14.9565 20.1153Z" fill="#99BFD0"/>
<path d="M10.7701 5.61921C10.3025 5.98233 9.85141 6.35891 9.41683 6.748C7.50787 8.9096 12.3144 16.5604 14.9563 20.1156C19.2825 15.8836 28.5796 9.56202 36.2504 8.05049C34.0536 4.33248 30.8696 1.54363 26.5426 0.419568C21.0431 0.282786 15.4633 1.97437 10.7701 5.61921Z" fill="#99BFD0"/>
<path d="M6.29715 40.6329C6.22115 40.543 6.14673 40.4449 6.07464 40.3388C-1.6933 29.9158 -0.143358 15.3071 9.41694 6.74773C7.50797 8.90933 12.3145 16.5601 14.9564 20.1153C3.95852 30.7205 4.35559 37.8095 6.07464 40.3388C6.14798 40.4372 6.22215 40.5353 6.29715 40.6329Z" fill="#CCDFE7"/>
</g>
<defs>
<clipPath id="clip0_505_15895">
<rect width="50.8634" height="50.8634" fill="white" transform="translate(0.5)"/>
</clipPath>
</defs>
</svg>
