<svg width="212" height="52" viewBox="0 0 212 52" fill="none" xmlns="http://www.w3.org/2000/svg">
<path d="M125.973 21.0395C125.973 16.6307 122.32 13.3333 116.842 13.3333H111.237L111.251 16.7231H116.782C119.834 16.7231 122.224 18.3191 122.224 21.2373C122.224 24.0864 119.943 25.9725 116.729 25.9725H111.251L111.237 29.1447H116.218L122.991 38.7075H127.507L120.239 28.6237C123.672 27.4037 125.973 24.393 125.973 21.0395Z" fill="#242424"/>
<path d="M201.014 21.0395C201.014 16.6307 197.362 13.3333 191.883 13.3333H186.279L186.292 16.7231H191.824C194.875 16.7231 197.266 18.3191 197.266 21.2373C197.266 24.0864 194.985 25.9725 191.771 25.9725H186.292L186.279 29.1447H191.259L198.033 38.7075H202.548L195.28 28.6237C198.713 27.4037 201.014 24.393 201.014 21.0395Z" fill="#242424"/>
<path d="M146.808 17.3622C145.243 16.7281 143.569 16.4001 141.878 16.396C138.936 16.396 136.618 17.7579 136.618 19.987C136.618 25.0091 149.9 23.2515 149.9 31.6272C149.9 36.181 146.065 39.063 140.935 39.063C137.193 39.1356 134.434 38.0738 132.7 36.7548L134.845 33.8431C136.379 34.6114 138.514 35.5215 140.443 35.5215C143.365 35.5215 146.088 34.1596 146.088 31.858C146.088 26.9117 132.943 28.5935 132.943 20.2508C132.943 15.9179 136.429 12.9963 141.489 12.9963C143.97 12.9436 146.636 13.5767 148.608 14.866" fill="#242424"/>
<path d="M88.8455 13.3333H105.517V16.7231H92.5509V24.0138H103.435V27.4663H92.5509V35.2814H106.045V38.7108H88.8455V13.3333Z" fill="#242424"/>
<path d="M72.8204 38.7008H68.66L58.1779 13.3134H62.4511L70.9046 34.4569" fill="#242424"/>
<path d="M69.0101 38.7008H73.1704L83.6526 13.3134H79.3794L70.9259 34.4569" fill="#242424"/>
<path d="M207.741 13.3134H211.5V38.704H207.741V13.3134Z" fill="#242424"/>
<path d="M155.092 26.0874C155.092 18.8329 160.929 12.9568 168.084 12.9568C175.239 12.9568 181.086 18.8692 181.086 26.0874C181.086 33.3749 175.243 39.251 168.084 39.251C160.926 39.251 155.092 33.4012 155.092 26.0874ZM177.258 26.0874C177.258 20.7916 173.224 16.5642 168.091 16.5642C162.958 16.5642 158.927 20.8279 158.927 26.0874C158.927 31.3997 162.961 35.6501 168.091 35.6501C173.221 35.6501 177.251 31.3634 177.251 26.0874H177.258Z" fill="#242424"/>
<g clip-path="url(#clip0_505_15851)">
<path d="M45.5903 10.7887C40.8349 4.59714 33.7579 1.27059 26.5427 1.09114C30.8697 2.2152 34.0536 5.00405 36.2505 8.72206C40.0156 7.98014 43.3889 8.39707 45.5903 10.7887Z" fill="#4D839A"/>
<path d="M42.1437 44.9615C41.811 45.2492 41.4689 45.5297 41.1175 45.8026C37.032 48.9755 32.2745 50.6682 27.4831 50.9631C27.175 50.9958 26.8628 51.0093 26.5466 51.003C26.8588 50.9956 27.171 50.9823 27.4831 50.9631C31.1063 50.5794 34.1513 47.5561 36.3489 43.1634C39.1613 44.8265 41.107 45.2109 42.1437 44.9615Z" fill="#001D29"/>
<path d="M42.1435 44.9614C52.0866 36.3654 53.6991 21.346 45.5904 10.7884C43.3589 8.37706 40.0156 7.97982 36.2505 8.72174C41.8665 18.2264 41.0312 33.8034 36.3486 43.1632C39.1611 44.8263 41.1067 45.2107 42.1435 44.9614Z" fill="#003A52"/>
<path d="M36.3488 43.1631L30.3269 26.1046L36.2506 8.72157C41.8666 18.2263 41.0314 33.8032 36.3488 43.1631Z" fill="#006089"/>
<path d="M30.3267 26.1051L14.9563 20.7871C19.2825 16.5552 28.5796 10.2336 36.2504 8.72204L30.3267 26.1051Z" fill="#3380A1"/>
<path d="M30.3269 26.105L14.9565 20.7871C24.4129 33.931 31.6107 40.3618 36.3487 43.1635L30.3269 26.105Z" fill="#66A0B8"/>
<path d="M14.9565 20.787C3.49735 31.8369 4.40899 39.0695 6.2972 41.3046C11.3164 47.8396 18.9219 51.1829 26.5464 51.003C30.5822 51.0836 33.9643 47.9295 36.3487 43.1634C31.6107 40.3616 24.4128 33.9309 14.9565 20.787Z" fill="#99BFD0"/>
<path d="M10.7701 6.29084C10.3025 6.65396 9.85141 7.03055 9.41683 7.41963C7.50787 9.58123 12.3144 17.232 14.9563 20.7872C19.2825 16.5553 28.5796 10.2336 36.2504 8.72212C34.0536 5.00411 30.8696 2.21526 26.5426 1.0912C21.0431 0.954417 15.4633 2.646 10.7701 6.29084Z" fill="#99BFD0"/>
<path d="M6.29715 41.3046C6.22115 41.2146 6.14673 41.1165 6.07464 41.0105C-1.6933 30.5874 -0.143358 15.9787 9.41694 7.41936C7.50797 9.58096 12.3145 17.2318 14.9564 20.787C3.95852 31.3922 4.35559 38.4811 6.07464 41.0105C6.14798 41.1089 6.22215 41.2069 6.29715 41.3046Z" fill="#CCDFE7"/>
</g>
<defs>
<clipPath id="clip0_505_15851">
<rect width="50.8634" height="50.8634" fill="white" transform="translate(0.5 0.671631)"/>
</clipPath>
</defs>
</svg>
