<svg width="212" height="52" viewBox="0 0 212 52" fill="none" xmlns="http://www.w3.org/2000/svg">
<path d="M125.973 20.6014C125.973 16.1926 122.32 12.8951 116.842 12.8951H111.237L111.251 16.285H116.782C119.834 16.285 122.224 17.881 122.224 20.7992C122.224 23.6483 119.943 25.5344 116.729 25.5344H111.251L111.237 28.7066H116.218L122.991 38.2693H127.507L120.239 28.1856C123.672 26.9655 125.973 23.9549 125.973 20.6014Z" fill="white"/>
<path d="M201.014 20.6014C201.014 16.1926 197.362 12.8951 191.883 12.8951H186.279L186.292 16.285H191.824C194.875 16.285 197.266 17.881 197.266 20.7992C197.266 23.6483 194.985 25.5344 191.771 25.5344H186.292L186.279 28.7066H191.259L198.033 38.2693H202.548L195.28 28.1856C198.713 26.9655 201.014 23.9549 201.014 20.6014Z" fill="white"/>
<path d="M146.808 16.9241C145.243 16.29 143.569 15.962 141.878 15.9579C138.936 15.9579 136.618 17.3198 136.618 19.5489C136.618 24.571 149.9 22.8134 149.9 31.1891C149.9 35.7429 146.065 38.6249 140.935 38.6249C137.193 38.6974 134.434 37.6356 132.7 36.3167L134.845 33.405C136.379 34.1733 138.514 35.0834 140.443 35.0834C143.365 35.0834 146.088 33.7215 146.088 31.4199C146.088 26.4736 132.943 28.1554 132.943 19.8127C132.943 15.4798 136.429 12.5582 141.489 12.5582C143.97 12.5055 146.636 13.1386 148.608 14.4279" fill="white"/>
<path d="M88.8455 12.8951H105.517V16.285H92.5509V23.5757H103.435V27.0282H92.5509V34.8433H106.045V38.2726H88.8455V12.8951Z" fill="white"/>
<path d="M72.8204 38.2626H68.66L58.1779 12.8752H62.4511L70.9046 34.0188" fill="white"/>
<path d="M69.0101 38.2626H73.1704L83.6526 12.8752H79.3794L70.9259 34.0188" fill="white"/>
<path d="M207.741 12.8752H211.5V38.2659H207.741V12.8752Z" fill="white"/>
<path d="M155.092 25.6493C155.092 18.3948 160.929 12.5187 168.084 12.5187C175.239 12.5187 181.086 18.4311 181.086 25.6493C181.086 32.9367 175.243 38.8129 168.084 38.8129C160.926 38.8129 155.092 32.9631 155.092 25.6493ZM177.258 25.6493C177.258 20.3535 173.224 16.1261 168.091 16.1261C162.958 16.1261 158.927 20.3898 158.927 25.6493C158.927 30.9615 162.961 35.212 168.091 35.212C173.221 35.212 177.251 30.9253 177.251 25.6493H177.258Z" fill="white"/>
<g clip-path="url(#clip0_505_15873)">
<path d="M45.5903 10.3506C40.8349 4.15903 33.7579 0.832478 26.5427 0.653029C30.8697 1.77709 34.0536 4.56594 36.2505 8.28395C40.0156 7.54203 43.3889 7.95896 45.5903 10.3506Z" fill="#4D839A"/>
<path d="M42.1437 44.5234C41.811 44.8111 41.4689 45.0916 41.1175 45.3645C37.032 48.5374 32.2745 50.2301 27.4831 50.525C27.175 50.5576 26.8628 50.5712 26.5466 50.5649C26.8588 50.5575 27.171 50.5442 27.4831 50.525C31.1063 50.1413 34.1513 47.1179 36.3489 42.7253C39.1613 44.3884 41.107 44.7728 42.1437 44.5234Z" fill="#001D29"/>
<path d="M42.1435 44.5233C52.0866 35.9273 53.6991 20.9079 45.5904 10.3503C43.3589 7.93895 40.0156 7.54171 36.2505 8.28363C41.8665 17.7883 41.0312 33.3653 36.3486 42.7251C39.1611 44.3882 41.1067 44.7726 42.1435 44.5233Z" fill="#003A52"/>
<path d="M36.3488 42.725L30.3269 25.6665L36.2506 8.28346C41.8666 17.7882 41.0314 33.3651 36.3488 42.725Z" fill="#006089"/>
<path d="M30.3267 25.6669L14.9563 20.349C19.2825 16.1171 28.5796 9.79546 36.2504 8.28393L30.3267 25.6669Z" fill="#3380A1"/>
<path d="M30.3269 25.6669L14.9565 20.349C24.4129 33.4929 31.6107 39.9237 36.3487 42.7254L30.3269 25.6669Z" fill="#66A0B8"/>
<path d="M14.9565 20.3489C3.49735 31.3988 4.40899 38.6314 6.2972 40.8665C11.3164 47.4015 18.9219 50.7448 26.5464 50.5648C30.5822 50.6454 33.9643 47.4914 36.3487 42.7253C31.6107 39.9235 24.4128 33.4927 14.9565 20.3489Z" fill="#99BFD0"/>
<path d="M10.7701 5.85273C10.3025 6.21585 9.85141 6.59243 9.41683 6.98152C7.50787 9.14312 12.3144 16.7939 14.9563 20.3491C19.2825 16.1171 28.5796 9.79554 36.2504 8.28401C34.0536 4.566 30.8696 1.77715 26.5426 0.653088C21.0431 0.516307 15.4633 2.20789 10.7701 5.85273Z" fill="#99BFD0"/>
<path d="M6.29715 40.8664C6.22115 40.7765 6.14673 40.6784 6.07464 40.5724C-1.6933 30.1493 -0.143358 15.5406 9.41694 6.98125C7.50797 9.14285 12.3145 16.7936 14.9564 20.3488C3.95852 30.954 4.35559 38.043 6.07464 40.5724C6.14798 40.6708 6.22215 40.7688 6.29715 40.8664Z" fill="#CCDFE7"/>
</g>
<defs>
<clipPath id="clip0_505_15873">
<rect width="50.8634" height="50.8634" fill="white" transform="translate(0.5 0.233521)"/>
</clipPath>
</defs>
</svg>
