<svg xmlns="http://www.w3.org/2000/svg" xmlns:xlink="http://www.w3.org/1999/xlink" contentStyleType="text/css" height="445px" preserveAspectRatio="none" style="width:208px;height:445px;background:#FFFFFF;" version="1.1" viewBox="0 0 208 445" width="208px" zoomAndPan="magnify"><defs/><g><ellipse cx="104.083" cy="20" fill="#222222" rx="10" ry="10" style="stroke:#222222;stroke-width:1.0;"/><rect fill="#F1F1F1" height="33.9688" rx="12.5" ry="12.5" style="stroke:#181818;stroke-width:0.5;" width="92.2461" x="57.96" y="50"/><text fill="#000000" font-family="monospace" font-size="12" lengthAdjust="spacing" textLength="72.2461" x="67.96" y="71.1387">GetEndUser</text><rect fill="#F1F1F1" height="33.9688" rx="12.5" ry="12.5" style="stroke:#181818;stroke-width:0.5;" width="186.166" x="11" y="103.9688"/><text fill="#000000" font-family="monospace" font-size="12" lengthAdjust="spacing" textLength="166.166" x="21" y="125.1074">ListEndUserIntegrations</text><rect fill="#F1F1F1" height="33.9688" rx="12.5" ry="12.5" style="stroke:#181818;stroke-width:0.5;" width="145.7422" x="31.2119" y="157.9375"/><text fill="#000000" font-family="sans-serif" font-size="12" lengthAdjust="spacing" textLength="125.7422" x="41.2119" y="179.0762">user clicks "connect"</text><rect fill="#F1F1F1" height="33.9688" rx="12.5" ry="12.5" style="stroke:#181818;stroke-width:0.5;" width="113.9199" x="47.123" y="260.3086"/><text fill="#000000" font-family="monospace" font-size="12" lengthAdjust="spacing" textLength="93.9199" x="57.123" y="281.4473">CreateEndUser</text><polygon fill="#F1F1F1" points="89.1675,211.9063,118.9985,211.9063,130.9985,223.9063,118.9985,235.9063,89.1675,235.9063,77.1675,223.9063,89.1675,211.9063" style="stroke:#181818;stroke-width:0.5;"/><text fill="#000000" font-family="sans-serif" font-size="11" lengthAdjust="spacing" textLength="53.6196" x="108.083" y="246.1167">not exists</text><text fill="#000000" font-family="sans-serif" font-size="11" lengthAdjust="spacing" textLength="29.8311" x="89.1675" y="227.7144">user?</text><text fill="#000000" font-family="sans-serif" font-size="11" lengthAdjust="spacing" textLength="32.1084" x="130.9985" y="221.312">exists</text><polygon fill="#F1F1F1" points="104.083,314.2773,116.083,326.2773,104.083,338.2773,92.083,326.2773,104.083,314.2773" style="stroke:#181818;stroke-width:0.5;"/><rect fill="#F1F1F1" height="33.9688" rx="12.5" ry="12.5" style="stroke:#181818;stroke-width:0.5;" width="135.5938" x="36.2861" y="358.2773"/><text fill="#000000" font-family="monospace" font-size="12" lengthAdjust="spacing" textLength="115.5938" x="46.2861" y="379.416">CreateActivation</text><ellipse cx="104.083" cy="423.2461" fill="none" rx="11" ry="11" style="stroke:#222222;stroke-width:1.0;"/><ellipse cx="104.083" cy="423.2461" fill="#222222" rx="6" ry="6" style="stroke:#222222;stroke-width:1.0;"/><line style="stroke:#181818;stroke-width:1.0;" x1="104.083" x2="104.083" y1="30" y2="50"/><polygon fill="#181818" points="100.083,40,104.083,50,108.083,40,104.083,44" style="stroke:#181818;stroke-width:1.0;"/><line style="stroke:#181818;stroke-width:1.0;" x1="104.083" x2="104.083" y1="83.9688" y2="103.9688"/><polygon fill="#181818" points="100.083,93.9688,104.083,103.9688,108.083,93.9688,104.083,97.9688" style="stroke:#181818;stroke-width:1.0;"/><line style="stroke:#181818;stroke-width:1.0;" x1="104.083" x2="104.083" y1="137.9375" y2="157.9375"/><polygon fill="#181818" points="100.083,147.9375,104.083,157.9375,108.083,147.9375,104.083,151.9375" style="stroke:#181818;stroke-width:1.0;"/><line style="stroke:#181818;stroke-width:1.0;" x1="104.083" x2="104.083" y1="235.9063" y2="260.3086"/><polygon fill="#181818" points="100.083,250.3086,104.083,260.3086,108.083,250.3086,104.083,254.3086" style="stroke:#181818;stroke-width:1.0;"/><line style="stroke:#181818;stroke-width:1.0;" x1="130.9985" x2="171.043" y1="223.9063" y2="223.9063"/><polygon fill="#181818" points="167.043,267.293,171.043,277.293,175.043,267.293,171.043,271.293" style="stroke:#181818;stroke-width:1.0;"/><line style="stroke:#181818;stroke-width:1.0;" x1="171.043" x2="171.043" y1="223.9063" y2="326.2773"/><line style="stroke:#181818;stroke-width:1.0;" x1="171.043" x2="116.083" y1="326.2773" y2="326.2773"/><polygon fill="#181818" points="126.083,322.2773,116.083,326.2773,126.083,330.2773,122.083,326.2773" style="stroke:#181818;stroke-width:1.0;"/><line style="stroke:#181818;stroke-width:1.0;" x1="104.083" x2="104.083" y1="294.2773" y2="314.2773"/><polygon fill="#181818" points="100.083,304.2773,104.083,314.2773,108.083,304.2773,104.083,308.2773" style="stroke:#181818;stroke-width:1.0;"/><line style="stroke:#181818;stroke-width:1.0;" x1="104.083" x2="104.083" y1="191.9063" y2="211.9063"/><polygon fill="#181818" points="100.083,201.9063,104.083,211.9063,108.083,201.9063,104.083,205.9063" style="stroke:#181818;stroke-width:1.0;"/><line style="stroke:#181818;stroke-width:1.0;" x1="104.083" x2="104.083" y1="338.2773" y2="358.2773"/><polygon fill="#181818" points="100.083,348.2773,104.083,358.2773,108.083,348.2773,104.083,352.2773" style="stroke:#181818;stroke-width:1.0;"/><line style="stroke:#181818;stroke-width:1.0;" x1="104.083" x2="104.083" y1="392.2461" y2="412.2461"/><polygon fill="#181818" points="100.083,402.2461,104.083,412.2461,108.083,402.2461,104.083,406.2461" style="stroke:#181818;stroke-width:1.0;"/><!--SRC=[JOv12W8n34NtFKNegdC5NGmY8e9R3r0wVpGufD94yVYs7GMpVF_nVzHYCUSstXzX1vakYkBzje4pwu-Sn70jqJYBzlHP8QM5qrt9foo2P9NNuvb2IyU1x0QX8Da8xzgbWoEglVk2QFZRmgAWy7N8GIQU-qkhkKl6hxxTPAUM7ny0]--></g></svg>